<svg width="407" height="407" viewBox="0 0 407 407" fill="none" xmlns="http://www.w3.org/2000/svg">
<path d="M120.126 285.874C136.501 302.248 157.363 313.399 180.075 317.917C202.787 322.435 226.328 320.116 247.723 311.254C269.117 302.392 287.403 287.386 300.268 268.131C313.133 248.877 320 226.24 320 203.083C320 179.926 313.133 157.29 300.268 138.035C287.403 118.781 269.117 103.774 247.723 94.9124C226.328 86.0507 202.787 83.732 180.075 88.2497C157.363 92.7674 136.501 103.919 120.126 120.293" stroke="white" stroke-width="20"/>
<path d="M219.5 203.542L227.309 197.295L232.306 203.542L227.309 209.789L219.5 203.542ZM79 213.542C73.4772 213.542 69 209.065 69 203.542C69 198.019 73.4772 193.542 79 193.542V213.542ZM172.667 145L180.475 138.753L227.309 197.295L219.5 203.542L211.691 209.789L164.858 151.247L172.667 145ZM219.5 203.542L227.309 209.789L180.475 268.33L172.667 262.083L164.858 255.836L211.691 197.295L219.5 203.542ZM219.5 203.542V213.542H79V203.542V193.542H219.5V203.542Z" fill="white"/>
</svg>
